<svg xmlns="http://www.w3.org/2000/svg" xmlns:xlink="http://www.w3.org/1999/xlink" width="48" zoomAndPan="magnify" viewBox="0 0 36 36.000001" height="48" preserveAspectRatio="xMidYMid meet" version="1.2"><g id="df2221c70b"><path style=" stroke:none;fill-rule:evenodd;fill:#ffffff;fill-opacity:1;" d="M 4.039062 31.597656 L 6.003906 24.421875 C 4.792969 22.324219 4.152344 19.9375 4.15625 17.5 C 4.160156 9.863281 10.371094 3.648438 18.011719 3.648438 C 21.714844 3.648438 25.195312 5.09375 27.808594 7.710938 C 30.425781 10.328125 31.867188 13.808594 31.863281 17.507812 C 31.863281 25.144531 25.644531 31.359375 18.011719 31.359375 C 18.007812 31.359375 18.011719 31.359375 18.011719 31.359375 L 18.003906 31.359375 C 15.6875 31.359375 13.40625 30.777344 11.382812 29.671875 Z M 4.039062 31.597656 "/><path style=" stroke:none;fill-rule:evenodd;fill:#ffffff;fill-opacity:1;" d="M 4.039062 31.964844 C 3.941406 31.964844 3.847656 31.925781 3.78125 31.855469 C 3.6875 31.765625 3.652344 31.628906 3.6875 31.503906 L 5.613281 24.472656 C 4.417969 22.351562 3.789062 19.945312 3.789062 17.5 C 3.792969 9.660156 10.171875 3.285156 18.011719 3.285156 C 21.8125 3.285156 25.382812 4.765625 28.070312 7.453125 C 30.753906 10.140625 32.230469 13.710938 32.230469 17.507812 C 32.226562 25.347656 25.847656 31.722656 18.011719 31.722656 C 15.683594 31.722656 13.378906 31.148438 11.335938 30.0625 L 4.132812 31.953125 C 4.101562 31.960938 4.070312 31.964844 4.039062 31.964844 Z M 4.039062 31.964844 "/><path style=" stroke:none;fill-rule:evenodd;fill:#b4b4b4;fill-opacity:1;" d="M 18.011719 3.648438 C 21.714844 3.648438 25.195312 5.09375 27.808594 7.710938 C 30.425781 10.328125 31.867188 13.808594 31.863281 17.507812 C 31.863281 25.144531 25.644531 31.359375 18.011719 31.359375 L 18.003906 31.359375 C 15.6875 31.359375 13.40625 30.777344 11.382812 29.671875 L 4.039062 31.597656 L 6.003906 24.421875 C 4.792969 22.324219 4.152344 19.9375 4.15625 17.5 C 4.160156 9.863281 10.371094 3.648438 18.011719 3.648438 M 18.011719 2.917969 C 9.972656 2.917969 3.429688 9.457031 3.425781 17.5 C 3.425781 19.957031 4.042969 22.375 5.222656 24.519531 L 3.335938 31.40625 C 3.265625 31.660156 3.335938 31.929688 3.519531 32.113281 C 3.660156 32.253906 3.847656 32.328125 4.039062 32.328125 C 4.101562 32.328125 4.164062 32.320312 4.222656 32.304688 L 11.292969 30.453125 C 13.355469 31.523438 15.671875 32.089844 18.003906 32.089844 C 26.050781 32.089844 32.589844 25.550781 32.59375 17.511719 C 32.597656 13.613281 31.082031 9.949219 28.328125 7.195312 C 25.574219 4.4375 21.910156 2.921875 18.011719 2.917969 Z M 18.011719 2.917969 "/><path style=" stroke:none;fill-rule:evenodd;fill:#40c351;fill-opacity:1;" d="M 26.15625 9.363281 C 23.980469 7.1875 21.089844 5.988281 18.015625 5.988281 C 11.664062 5.988281 6.496094 11.152344 6.492188 17.5 C 6.492188 19.675781 7.101562 21.792969 8.253906 23.625 L 8.527344 24.0625 L 7.363281 28.308594 L 11.722656 27.167969 L 12.144531 27.414062 C 13.910156 28.464844 15.9375 29.019531 18.003906 29.019531 L 18.011719 29.019531 C 24.355469 29.019531 29.523438 23.855469 29.523438 17.507812 C 29.527344 14.433594 28.328125 11.539062 26.15625 9.363281 Z M 26.15625 9.363281 "/><path style=" stroke:none;fill-rule:evenodd;fill:#ffffff;fill-opacity:1;" d="M 14.546875 11.707031 C 14.289062 11.132812 14.015625 11.121094 13.765625 11.109375 C 13.566406 11.101562 13.335938 11.101562 13.105469 11.101562 C 12.875 11.101562 12.5 11.1875 12.179688 11.535156 C 11.863281 11.882812 10.96875 12.71875 10.96875 14.421875 C 10.96875 16.125 12.210938 17.773438 12.382812 18.003906 C 12.554688 18.234375 14.777344 21.839844 18.296875 23.226562 C 21.21875 24.382812 21.816406 24.152344 22.449219 24.09375 C 23.085938 24.035156 24.5 23.257812 24.789062 22.449219 C 25.074219 21.640625 25.074219 20.949219 24.988281 20.804688 C 24.902344 20.660156 24.671875 20.574219 24.324219 20.398438 C 23.980469 20.226562 22.277344 19.386719 21.960938 19.273438 C 21.644531 19.15625 21.414062 19.101562 21.179688 19.445312 C 20.949219 19.792969 20.285156 20.574219 20.085938 20.804688 C 19.882812 21.035156 19.679688 21.0625 19.335938 20.890625 C 18.988281 20.714844 17.875 20.351562 16.550781 19.171875 C 15.523438 18.253906 14.828125 17.121094 14.625 16.773438 C 14.421875 16.429688 14.601562 16.242188 14.777344 16.070312 C 14.933594 15.914062 15.121094 15.664062 15.296875 15.460938 C 15.46875 15.261719 15.527344 15.117188 15.640625 14.886719 C 15.757812 14.652344 15.699219 14.453125 15.613281 14.277344 C 15.527344 14.105469 14.855469 12.394531 14.546875 11.707031 Z M 14.546875 11.707031 "/></g></svg>